M48
;Layer_Color=9474304
;FILE_FORMAT=2:5
INCH
;TYPE=PLATED
T1F00S00C0.02756
T2F00S00C0.03346
T3F00S00C0.03543
T4F00S00C0.03937
%
T01
X0277169Y0315000
X0286224
X0214000Y0460276
X0336500Y0333000
Y0321500
X0214000Y0469331
T02
X0227500Y0319000
X0247500Y0317500
Y0347500
X0227500Y0349000
X0317000Y0370000
Y0400000
T03
X0212500Y0417000
Y0427000
X0257980Y0425118
Y0435118
Y0415118
Y0405118
Y0395118
Y0385118
Y0375118
X0287980
Y0385118
Y0395118
Y0405118
Y0415118
Y0425118
Y0435118
X0243000Y0475500
X0233000
T04
X0381622Y0349177
Y0369177
Y0389177
X0381122Y0428677
Y0448677
Y0468677
M30
