G04 Layer_Physical_Order=1*
G04 Layer_Color=255*
%FSAX25Y25*%
%MOIN*%
G70*
G01*
G75*
%ADD10C,0.03150*%
%ADD11C,0.04724*%
%ADD12R,0.05906X0.05906*%
%ADD13C,0.05906*%
%ADD14C,0.05512*%
%ADD15C,0.03937*%
%ADD16R,0.05906X0.05906*%
G36*
X0389524Y0307326D02*
X0207326D01*
Y0489524D01*
X0389524D01*
Y0307326D01*
D02*
G37*
%LPC*%
G36*
X0236953Y0479453D02*
X0233500D01*
Y0476000D01*
X0236953D01*
Y0479453D01*
D02*
G37*
G36*
X0232500D02*
X0229047D01*
Y0476000D01*
X0232500D01*
Y0479453D01*
D02*
G37*
G36*
X0236953Y0475000D02*
X0233500D01*
Y0471547D01*
X0236953D01*
Y0475000D01*
D02*
G37*
G36*
X0232500D02*
X0229047D01*
Y0471547D01*
X0232500D01*
Y0475000D01*
D02*
G37*
G36*
X0214500Y0472656D02*
Y0469831D01*
X0217325D01*
X0217276Y0470209D01*
X0216937Y0471026D01*
X0216398Y0471729D01*
X0215696Y0472268D01*
X0214878Y0472607D01*
X0214500Y0472656D01*
D02*
G37*
G36*
X0213500D02*
X0213122Y0472607D01*
X0212304Y0472268D01*
X0211602Y0471729D01*
X0211063Y0471026D01*
X0210724Y0470209D01*
X0210675Y0469831D01*
X0213500D01*
Y0472656D01*
D02*
G37*
G36*
X0217325Y0468831D02*
X0214500D01*
Y0466005D01*
X0214878Y0466055D01*
X0215696Y0466394D01*
X0216398Y0466933D01*
X0216937Y0467635D01*
X0217276Y0468453D01*
X0217325Y0468831D01*
D02*
G37*
G36*
X0213500D02*
X0210675D01*
X0210724Y0468453D01*
X0211063Y0467635D01*
X0211602Y0466933D01*
X0212304Y0466394D01*
X0213122Y0466055D01*
X0213500Y0466005D01*
Y0468831D01*
D02*
G37*
G36*
X0214000Y0464247D02*
X0212972Y0464111D01*
X0212015Y0463715D01*
X0211192Y0463084D01*
X0210561Y0462261D01*
X0210164Y0461303D01*
X0210029Y0460276D01*
X0210164Y0459248D01*
X0210561Y0458290D01*
X0211192Y0457468D01*
X0212015Y0456837D01*
X0212972Y0456440D01*
X0214000Y0456305D01*
X0215028Y0456440D01*
X0215985Y0456837D01*
X0216808Y0457468D01*
X0217439Y0458290D01*
X0217836Y0459248D01*
X0217971Y0460276D01*
X0217836Y0461303D01*
X0217439Y0462261D01*
X0216808Y0463084D01*
X0215985Y0463715D01*
X0215028Y0464111D01*
X0214000Y0464247D01*
D02*
G37*
G36*
X0287980Y0439685D02*
X0286799Y0439529D01*
X0285697Y0439073D01*
X0284751Y0438347D01*
X0284026Y0437401D01*
X0283569Y0436300D01*
X0283414Y0435118D01*
X0283422Y0435053D01*
X0279554Y0431184D01*
X0279049Y0430526D01*
X0278731Y0429760D01*
X0278623Y0428938D01*
Y0401299D01*
X0278731Y0400476D01*
X0279049Y0399710D01*
X0279554Y0399052D01*
X0283422Y0395184D01*
X0283414Y0395118D01*
X0283569Y0393936D01*
X0284026Y0392835D01*
X0284751Y0391889D01*
X0285697Y0391163D01*
X0286799Y0390707D01*
X0287980Y0390552D01*
X0289162Y0390707D01*
X0290264Y0391163D01*
X0291210Y0391889D01*
X0291935Y0392835D01*
X0292391Y0393936D01*
X0292547Y0395118D01*
X0292391Y0396300D01*
X0291935Y0397401D01*
X0291210Y0398347D01*
X0290264Y0399073D01*
X0289162Y0399529D01*
X0287980Y0399685D01*
X0287915Y0399676D01*
X0287447Y0400144D01*
X0287668Y0400593D01*
X0287980Y0400552D01*
X0289162Y0400707D01*
X0290264Y0401163D01*
X0291210Y0401889D01*
X0291935Y0402835D01*
X0292391Y0403936D01*
X0292547Y0405118D01*
X0292391Y0406300D01*
X0291935Y0407402D01*
X0291210Y0408347D01*
X0290264Y0409073D01*
X0289162Y0409529D01*
X0287980Y0409685D01*
X0286799Y0409529D01*
X0285697Y0409073D01*
X0285425Y0408864D01*
X0284977Y0409086D01*
Y0411151D01*
X0285425Y0411372D01*
X0285697Y0411163D01*
X0286799Y0410707D01*
X0287980Y0410552D01*
X0289162Y0410707D01*
X0290264Y0411163D01*
X0291210Y0411889D01*
X0291250Y0411941D01*
X0314365D01*
X0378252Y0348055D01*
X0378527Y0347390D01*
X0379095Y0346650D01*
X0379835Y0346082D01*
X0380697Y0345725D01*
X0381622Y0345603D01*
X0382547Y0345725D01*
X0383409Y0346082D01*
X0384149Y0346650D01*
X0384717Y0347390D01*
X0385074Y0348252D01*
X0385196Y0349177D01*
X0385074Y0350102D01*
X0384717Y0350964D01*
X0384149Y0351704D01*
X0383409Y0352272D01*
X0382744Y0352548D01*
X0317927Y0417365D01*
X0317269Y0417869D01*
X0316503Y0418187D01*
X0315681Y0418295D01*
X0291250D01*
X0291210Y0418347D01*
X0291157Y0418387D01*
Y0421849D01*
X0291210Y0421889D01*
X0291935Y0422835D01*
X0292391Y0423936D01*
X0292547Y0425118D01*
X0292391Y0426300D01*
X0291935Y0427401D01*
X0291210Y0428347D01*
X0290264Y0429073D01*
X0289162Y0429529D01*
X0287980Y0429685D01*
X0287668Y0429644D01*
X0287447Y0430092D01*
X0287915Y0430560D01*
X0287980Y0430552D01*
X0289162Y0430707D01*
X0290264Y0431163D01*
X0291210Y0431889D01*
X0291935Y0432835D01*
X0292391Y0433936D01*
X0292547Y0435118D01*
X0292391Y0436300D01*
X0291935Y0437401D01*
X0291210Y0438347D01*
X0290264Y0439073D01*
X0289162Y0439529D01*
X0287980Y0439685D01*
D02*
G37*
G36*
X0243000Y0480067D02*
X0241818Y0479911D01*
X0240717Y0479455D01*
X0239771Y0478729D01*
X0239045Y0477783D01*
X0238589Y0476682D01*
X0238433Y0475500D01*
X0238589Y0474318D01*
X0239045Y0473217D01*
X0239771Y0472271D01*
X0239823Y0472231D01*
Y0450099D01*
X0239932Y0449276D01*
X0240249Y0448510D01*
X0240754Y0447852D01*
X0253453Y0435153D01*
Y0430591D01*
X0258015D01*
X0258514Y0430092D01*
X0258293Y0429644D01*
X0257980Y0429685D01*
X0256799Y0429529D01*
X0255697Y0429073D01*
X0254751Y0428347D01*
X0254026Y0427401D01*
X0253569Y0426300D01*
X0253414Y0425118D01*
X0253422Y0425053D01*
X0249554Y0421184D01*
X0249049Y0420526D01*
X0248731Y0419760D01*
X0248623Y0418938D01*
Y0391299D01*
X0248731Y0390476D01*
X0249049Y0389710D01*
X0249554Y0389052D01*
X0253422Y0385184D01*
X0253414Y0385118D01*
X0253569Y0383936D01*
X0254026Y0382835D01*
X0254751Y0381889D01*
X0255697Y0381163D01*
X0256799Y0380707D01*
X0257980Y0380552D01*
X0259162Y0380707D01*
X0260264Y0381163D01*
X0261210Y0381889D01*
X0261935Y0382835D01*
X0262391Y0383936D01*
X0262547Y0385118D01*
X0262391Y0386300D01*
X0261935Y0387402D01*
X0261210Y0388347D01*
X0260264Y0389073D01*
X0259162Y0389529D01*
X0257980Y0389685D01*
X0257915Y0389676D01*
X0257447Y0390144D01*
X0257668Y0390593D01*
X0257980Y0390552D01*
X0259162Y0390707D01*
X0260264Y0391163D01*
X0261210Y0391889D01*
X0261935Y0392835D01*
X0262391Y0393936D01*
X0262547Y0395118D01*
X0262391Y0396300D01*
X0261935Y0397401D01*
X0261210Y0398347D01*
X0260264Y0399073D01*
X0259162Y0399529D01*
X0257980Y0399685D01*
X0256799Y0399529D01*
X0255697Y0399073D01*
X0255425Y0398864D01*
X0254977Y0399086D01*
Y0401151D01*
X0255425Y0401372D01*
X0255697Y0401163D01*
X0256799Y0400707D01*
X0257980Y0400552D01*
X0259162Y0400707D01*
X0260264Y0401163D01*
X0261210Y0401889D01*
X0261935Y0402835D01*
X0262391Y0403936D01*
X0262547Y0405118D01*
X0262538Y0405184D01*
X0266346Y0408991D01*
X0266851Y0409649D01*
X0267168Y0410416D01*
X0267277Y0411238D01*
Y0428999D01*
X0267168Y0429821D01*
X0266851Y0430587D01*
X0266346Y0431245D01*
X0262508Y0435083D01*
Y0439646D01*
X0257945D01*
X0246177Y0451414D01*
Y0472231D01*
X0246229Y0472271D01*
X0246955Y0473217D01*
X0247411Y0474318D01*
X0247567Y0475500D01*
X0247411Y0476682D01*
X0246955Y0477783D01*
X0246229Y0478729D01*
X0245283Y0479455D01*
X0244182Y0479911D01*
X0243000Y0480067D01*
D02*
G37*
G36*
X0381122Y0472251D02*
X0380197Y0472129D01*
X0379335Y0471772D01*
X0378595Y0471204D01*
X0378027Y0470464D01*
X0377670Y0469602D01*
X0377548Y0468677D01*
X0377670Y0467752D01*
X0377945Y0467088D01*
Y0450267D01*
X0377752Y0449799D01*
X0373754Y0445801D01*
X0373249Y0445144D01*
X0372932Y0444377D01*
X0372823Y0443555D01*
Y0374799D01*
X0372932Y0373977D01*
X0373249Y0373211D01*
X0373754Y0372553D01*
X0378252Y0368055D01*
X0378527Y0367390D01*
X0379095Y0366650D01*
X0379835Y0366082D01*
X0380697Y0365725D01*
X0381622Y0365603D01*
X0382547Y0365725D01*
X0383409Y0366082D01*
X0384149Y0366650D01*
X0384717Y0367390D01*
X0385074Y0368252D01*
X0385196Y0369177D01*
X0385074Y0370102D01*
X0384717Y0370964D01*
X0384149Y0371704D01*
X0383409Y0372272D01*
X0382744Y0372548D01*
X0379177Y0376115D01*
Y0386022D01*
X0379625Y0386243D01*
X0379835Y0386082D01*
X0380697Y0385725D01*
X0381622Y0385603D01*
X0382547Y0385725D01*
X0383409Y0386082D01*
X0384149Y0386650D01*
X0384717Y0387390D01*
X0385074Y0388252D01*
X0385196Y0389177D01*
X0385074Y0390102D01*
X0384717Y0390964D01*
X0384149Y0391704D01*
X0383409Y0392272D01*
X0382547Y0392629D01*
X0381622Y0392751D01*
X0380697Y0392629D01*
X0379835Y0392272D01*
X0379625Y0392111D01*
X0379177Y0392332D01*
Y0425106D01*
X0379677Y0425441D01*
X0380197Y0425225D01*
X0381122Y0425103D01*
X0382047Y0425225D01*
X0382909Y0425582D01*
X0383649Y0426150D01*
X0384217Y0426890D01*
X0384574Y0427752D01*
X0384696Y0428677D01*
X0384574Y0429602D01*
X0384217Y0430464D01*
X0383649Y0431204D01*
X0382909Y0431772D01*
X0382047Y0432129D01*
X0381122Y0432251D01*
X0380197Y0432129D01*
X0379677Y0431914D01*
X0379177Y0432248D01*
Y0442239D01*
X0382244Y0445307D01*
X0382909Y0445582D01*
X0383649Y0446150D01*
X0384217Y0446890D01*
X0384574Y0447752D01*
X0384696Y0448677D01*
X0384574Y0449602D01*
X0384299Y0450267D01*
Y0467088D01*
X0384574Y0467752D01*
X0384696Y0468677D01*
X0384574Y0469602D01*
X0384217Y0470464D01*
X0383649Y0471204D01*
X0382909Y0471772D01*
X0382047Y0472129D01*
X0381122Y0472251D01*
D02*
G37*
G36*
X0217028Y0431528D02*
X0207972D01*
Y0422472D01*
X0212535D01*
X0213694Y0421313D01*
X0213617Y0421094D01*
X0213437Y0420863D01*
X0213000Y0420921D01*
Y0417500D01*
X0216421D01*
X0216364Y0417937D01*
X0216594Y0418118D01*
X0216813Y0418194D01*
X0224323Y0410684D01*
Y0351974D01*
X0223717Y0351184D01*
X0223281Y0350131D01*
X0223132Y0349000D01*
X0223281Y0347869D01*
X0223717Y0346816D01*
X0224411Y0345911D01*
X0225316Y0345217D01*
X0226370Y0344781D01*
X0227500Y0344632D01*
X0228630Y0344781D01*
X0229684Y0345217D01*
X0230589Y0345911D01*
X0231283Y0346816D01*
X0231719Y0347869D01*
X0231868Y0349000D01*
X0231719Y0350131D01*
X0231283Y0351184D01*
X0230677Y0351974D01*
Y0412000D01*
X0230569Y0412822D01*
X0230251Y0413588D01*
X0229746Y0414246D01*
X0217028Y0426965D01*
Y0431528D01*
D02*
G37*
G36*
X0212000Y0420921D02*
X0211468Y0420851D01*
X0210507Y0420453D01*
X0209681Y0419819D01*
X0209047Y0418993D01*
X0208649Y0418032D01*
X0208579Y0417500D01*
X0212000D01*
Y0420921D01*
D02*
G37*
G36*
X0216421Y0416500D02*
X0213000D01*
Y0413079D01*
X0213532Y0413149D01*
X0214493Y0413547D01*
X0215319Y0414181D01*
X0215953Y0415007D01*
X0216351Y0415968D01*
X0216421Y0416500D01*
D02*
G37*
G36*
X0212000D02*
X0208579D01*
X0208649Y0415968D01*
X0209047Y0415007D01*
X0209681Y0414181D01*
X0210507Y0413547D01*
X0211468Y0413149D01*
X0212000Y0413079D01*
Y0416500D01*
D02*
G37*
G36*
X0317000Y0404368D02*
X0315869Y0404219D01*
X0314816Y0403783D01*
X0313911Y0403089D01*
X0313217Y0402184D01*
X0312781Y0401130D01*
X0312632Y0400000D01*
X0312781Y0398869D01*
X0313217Y0397816D01*
X0313911Y0396911D01*
X0314816Y0396217D01*
X0315869Y0395781D01*
X0317000Y0395632D01*
X0318130Y0395781D01*
X0319184Y0396217D01*
X0320089Y0396911D01*
X0320783Y0397816D01*
X0321219Y0398869D01*
X0321368Y0400000D01*
X0321219Y0401130D01*
X0320783Y0402184D01*
X0320089Y0403089D01*
X0319184Y0403783D01*
X0318130Y0404219D01*
X0317000Y0404368D01*
D02*
G37*
G36*
X0258480Y0379039D02*
Y0375618D01*
X0261901D01*
X0261831Y0376150D01*
X0261433Y0377112D01*
X0260800Y0377937D01*
X0259974Y0378571D01*
X0259012Y0378969D01*
X0258480Y0379039D01*
D02*
G37*
G36*
X0257480D02*
X0256948Y0378969D01*
X0255987Y0378571D01*
X0255161Y0377937D01*
X0254528Y0377112D01*
X0254129Y0376150D01*
X0254059Y0375618D01*
X0257480D01*
Y0379039D01*
D02*
G37*
G36*
X0261901Y0374618D02*
X0258480D01*
Y0371197D01*
X0259012Y0371267D01*
X0259974Y0371666D01*
X0260800Y0372299D01*
X0261433Y0373125D01*
X0261831Y0374086D01*
X0261901Y0374618D01*
D02*
G37*
G36*
X0257480D02*
X0254059D01*
X0254129Y0374086D01*
X0254528Y0373125D01*
X0255161Y0372299D01*
X0255987Y0371666D01*
X0256948Y0371267D01*
X0257480Y0371197D01*
Y0374618D01*
D02*
G37*
G36*
X0287980Y0379685D02*
X0286799Y0379529D01*
X0285697Y0379073D01*
X0284751Y0378347D01*
X0284026Y0377401D01*
X0283569Y0376300D01*
X0283414Y0375118D01*
X0283569Y0373936D01*
X0284026Y0372835D01*
X0284751Y0371889D01*
X0285697Y0371163D01*
X0286799Y0370707D01*
X0287980Y0370552D01*
X0289162Y0370707D01*
X0290264Y0371163D01*
X0291210Y0371889D01*
X0291935Y0372835D01*
X0292391Y0373936D01*
X0292547Y0375118D01*
X0292391Y0376300D01*
X0291935Y0377401D01*
X0291210Y0378347D01*
X0290264Y0379073D01*
X0289162Y0379529D01*
X0287980Y0379685D01*
D02*
G37*
G36*
X0247500Y0351868D02*
X0246370Y0351719D01*
X0245316Y0351283D01*
X0244411Y0350589D01*
X0243717Y0349684D01*
X0243281Y0348630D01*
X0243132Y0347500D01*
X0243281Y0346370D01*
X0243717Y0345316D01*
X0244411Y0344411D01*
X0245316Y0343717D01*
X0246370Y0343281D01*
X0247500Y0343132D01*
X0248630Y0343281D01*
X0249684Y0343717D01*
X0250589Y0344411D01*
X0251283Y0345316D01*
X0251719Y0346370D01*
X0251868Y0347500D01*
X0251719Y0348630D01*
X0251283Y0349684D01*
X0250589Y0350589D01*
X0249684Y0351283D01*
X0248630Y0351719D01*
X0247500Y0351868D01*
D02*
G37*
G36*
X0287980Y0389685D02*
X0286799Y0389529D01*
X0285697Y0389073D01*
X0284751Y0388347D01*
X0284026Y0387402D01*
X0283569Y0386300D01*
X0283414Y0385118D01*
X0283569Y0383936D01*
X0284026Y0382835D01*
X0284751Y0381889D01*
X0285697Y0381163D01*
X0286799Y0380707D01*
X0287980Y0380552D01*
X0289162Y0380707D01*
X0290264Y0381163D01*
X0291210Y0381889D01*
X0291250Y0381941D01*
X0320066D01*
X0333323Y0368684D01*
Y0337528D01*
X0331972D01*
Y0328472D01*
X0341028D01*
Y0337528D01*
X0339677D01*
Y0370000D01*
X0339568Y0370822D01*
X0339251Y0371588D01*
X0338746Y0372246D01*
X0323628Y0387365D01*
X0322970Y0387869D01*
X0322204Y0388187D01*
X0321382Y0388295D01*
X0291250D01*
X0291210Y0388347D01*
X0290264Y0389073D01*
X0289162Y0389529D01*
X0287980Y0389685D01*
D02*
G37*
G36*
X0248000Y0321222D02*
Y0318000D01*
X0251222D01*
X0251159Y0318480D01*
X0250781Y0319394D01*
X0250179Y0320179D01*
X0249394Y0320781D01*
X0248481Y0321159D01*
X0248000Y0321222D01*
D02*
G37*
G36*
X0247000D02*
X0246519Y0321159D01*
X0245606Y0320781D01*
X0244821Y0320179D01*
X0244219Y0319394D01*
X0243841Y0318480D01*
X0243777Y0318000D01*
X0247000D01*
Y0321222D01*
D02*
G37*
G36*
X0336500Y0326067D02*
X0335318Y0325911D01*
X0334217Y0325455D01*
X0333271Y0324729D01*
X0332545Y0323783D01*
X0332089Y0322682D01*
X0331933Y0321500D01*
X0332089Y0320318D01*
X0332545Y0319217D01*
X0333271Y0318271D01*
X0334217Y0317545D01*
X0335318Y0317089D01*
X0336500Y0316933D01*
X0337682Y0317089D01*
X0338783Y0317545D01*
X0339729Y0318271D01*
X0340455Y0319217D01*
X0340911Y0320318D01*
X0341067Y0321500D01*
X0340911Y0322682D01*
X0340455Y0323783D01*
X0339729Y0324729D01*
X0338783Y0325455D01*
X0337682Y0325911D01*
X0336500Y0326067D01*
D02*
G37*
G36*
X0277669Y0318325D02*
Y0315500D01*
X0280495D01*
X0280445Y0315878D01*
X0280106Y0316696D01*
X0279567Y0317398D01*
X0278865Y0317937D01*
X0278047Y0318276D01*
X0277669Y0318325D01*
D02*
G37*
G36*
X0276669D02*
X0276291Y0318276D01*
X0275474Y0317937D01*
X0274771Y0317398D01*
X0274232Y0316696D01*
X0273893Y0315878D01*
X0273844Y0315500D01*
X0276669D01*
Y0318325D01*
D02*
G37*
G36*
X0227500Y0323368D02*
X0226370Y0323219D01*
X0225316Y0322783D01*
X0224411Y0322089D01*
X0223717Y0321184D01*
X0223281Y0320130D01*
X0223132Y0319000D01*
X0223281Y0317869D01*
X0223717Y0316816D01*
X0224411Y0315911D01*
X0225316Y0315217D01*
X0226370Y0314781D01*
X0227500Y0314632D01*
X0228630Y0314781D01*
X0229684Y0315217D01*
X0230589Y0315911D01*
X0231283Y0316816D01*
X0231719Y0317869D01*
X0231868Y0319000D01*
X0231719Y0320130D01*
X0231283Y0321184D01*
X0230589Y0322089D01*
X0229684Y0322783D01*
X0228630Y0323219D01*
X0227500Y0323368D01*
D02*
G37*
G36*
X0251222Y0317000D02*
X0248000D01*
Y0313777D01*
X0248481Y0313841D01*
X0249394Y0314219D01*
X0250179Y0314821D01*
X0250781Y0315606D01*
X0251159Y0316519D01*
X0251222Y0317000D01*
D02*
G37*
G36*
X0247000D02*
X0243777D01*
X0243841Y0316519D01*
X0244219Y0315606D01*
X0244821Y0314821D01*
X0245606Y0314219D01*
X0246519Y0313841D01*
X0247000Y0313777D01*
Y0317000D01*
D02*
G37*
G36*
X0280495Y0314500D02*
X0277669D01*
Y0311675D01*
X0278047Y0311724D01*
X0278865Y0312063D01*
X0279567Y0312602D01*
X0280106Y0313304D01*
X0280445Y0314122D01*
X0280495Y0314500D01*
D02*
G37*
G36*
X0276669D02*
X0273844D01*
X0273893Y0314122D01*
X0274232Y0313304D01*
X0274771Y0312602D01*
X0275474Y0312063D01*
X0276291Y0311724D01*
X0276669Y0311675D01*
Y0314500D01*
D02*
G37*
G36*
X0317000Y0374368D02*
X0315869Y0374219D01*
X0314816Y0373783D01*
X0313911Y0373089D01*
X0313217Y0372184D01*
X0312781Y0371130D01*
X0312632Y0370000D01*
X0312781Y0368869D01*
X0313217Y0367816D01*
X0313823Y0367026D01*
Y0347092D01*
X0285624Y0318892D01*
X0285197Y0318836D01*
X0284239Y0318439D01*
X0283417Y0317808D01*
X0282785Y0316986D01*
X0282389Y0316028D01*
X0282253Y0315000D01*
X0282389Y0313972D01*
X0282785Y0313015D01*
X0283417Y0312192D01*
X0284239Y0311561D01*
X0285197Y0311164D01*
X0286224Y0311029D01*
X0287252Y0311164D01*
X0288210Y0311561D01*
X0289032Y0312192D01*
X0289663Y0313015D01*
X0290060Y0313972D01*
X0290116Y0314399D01*
X0319246Y0343529D01*
X0319751Y0344187D01*
X0320069Y0344953D01*
X0320177Y0345776D01*
Y0367026D01*
X0320783Y0367816D01*
X0321219Y0368869D01*
X0321368Y0370000D01*
X0321219Y0371130D01*
X0320783Y0372184D01*
X0320089Y0373089D01*
X0319184Y0373783D01*
X0318130Y0374219D01*
X0317000Y0374368D01*
D02*
G37*
%LPD*%
D10*
X0381122Y0448677D02*
Y0468677D01*
X0287980Y0415118D02*
Y0425118D01*
X0257980Y0435118D02*
X0264100Y0428999D01*
Y0411238D02*
Y0428999D01*
X0257980Y0405118D02*
X0264100Y0411238D01*
X0281800Y0401299D02*
X0287980Y0395118D01*
X0281800Y0401299D02*
Y0428938D01*
X0287980Y0435118D01*
X0251800Y0391299D02*
X0257980Y0385118D01*
X0251800Y0391299D02*
Y0418938D01*
X0257980Y0425118D01*
X0376000Y0374799D02*
X0381622Y0369177D01*
X0376000Y0374799D02*
Y0443555D01*
X0381122Y0448677D01*
X0212500Y0427000D02*
X0227500Y0412000D01*
Y0349000D02*
Y0412000D01*
X0243000Y0450099D02*
Y0475500D01*
Y0450099D02*
X0257980Y0435118D01*
X0286224Y0315000D02*
X0317000Y0345776D01*
Y0370000D01*
X0287980Y0385118D02*
X0321382D01*
X0336500Y0370000D01*
Y0333000D02*
Y0370000D01*
X0233000Y0400099D02*
X0257980Y0375118D01*
X0233000Y0400099D02*
Y0475500D01*
X0315681Y0415118D02*
X0381622Y0349177D01*
X0287980Y0415118D02*
X0315681D01*
X0257980Y0327980D02*
Y0375118D01*
X0247500Y0317500D02*
X0257980Y0327980D01*
D11*
X0214000Y0460276D02*
D03*
Y0469331D02*
D03*
X0286224Y0315000D02*
D03*
X0277169D02*
D03*
D12*
X0257980Y0435118D02*
D03*
X0233000Y0475500D02*
D03*
D13*
X0257980Y0425118D02*
D03*
Y0415118D02*
D03*
Y0405118D02*
D03*
Y0395118D02*
D03*
Y0385118D02*
D03*
Y0375118D02*
D03*
X0287980Y0435118D02*
D03*
Y0425118D02*
D03*
Y0415118D02*
D03*
Y0405118D02*
D03*
Y0395118D02*
D03*
Y0385118D02*
D03*
Y0375118D02*
D03*
X0336500Y0321500D02*
D03*
X0212500Y0417000D02*
D03*
X0243000Y0475500D02*
D03*
D14*
X0317000Y0370000D02*
D03*
Y0400000D02*
D03*
X0247500Y0317500D02*
D03*
Y0347500D02*
D03*
X0227500Y0319000D02*
D03*
Y0349000D02*
D03*
D15*
X0381122Y0428677D02*
D03*
Y0448677D02*
D03*
Y0468677D02*
D03*
X0381622Y0349177D02*
D03*
Y0369177D02*
D03*
Y0389177D02*
D03*
D16*
X0336500Y0333000D02*
D03*
X0212500Y0427000D02*
D03*
M02*
