G04 Layer_Color=65535*
%FSAX25Y25*%
%MOIN*%
G70*
G01*
G75*
%ADD17C,0.00787*%
%ADD18C,0.00984*%
%ADD19C,0.02362*%
%ADD20C,0.01000*%
%ADD21C,0.00591*%
D17*
X0270480Y0444488D02*
G03*
X0275480Y0444488I0002500J0000000D01*
G01*
X0217925Y0457126D02*
Y0472783D01*
X0210063D02*
X0217925D01*
X0210063Y0457126D02*
Y0472783D01*
Y0457126D02*
X0217925D01*
X0262547Y0365748D02*
Y0444488D01*
X0283413Y0365748D02*
Y0444488D01*
X0262547D02*
X0270480D01*
X0275480D02*
X0283413D01*
X0262547Y0365748D02*
X0283413D01*
X0273717Y0318925D02*
X0289374D01*
X0273717Y0311063D02*
Y0318925D01*
Y0311063D02*
X0289374D01*
Y0318925D01*
X0317000Y0395000D02*
Y0395900D01*
Y0374100D02*
Y0375000D01*
Y0395000D02*
X0320000D01*
Y0375000D02*
Y0395000D01*
X0314000Y0375000D02*
X0320000D01*
X0314000D02*
Y0395000D01*
X0317000D01*
X0247500Y0342500D02*
Y0343400D01*
Y0321600D02*
Y0322500D01*
Y0342500D02*
X0250500D01*
Y0322500D02*
Y0342500D01*
X0244500Y0322500D02*
X0250500D01*
X0244500D02*
Y0342500D01*
X0247500D01*
X0227500Y0344000D02*
Y0344900D01*
Y0323100D02*
Y0324000D01*
Y0344000D02*
X0230500D01*
Y0324000D02*
Y0344000D01*
X0224500Y0324000D02*
X0230500D01*
X0224500D02*
Y0344000D01*
X0227500D01*
X0217500Y0412000D02*
Y0432000D01*
X0207500D02*
X0217500D01*
X0207500Y0412000D02*
Y0432000D01*
Y0412000D02*
X0217500D01*
X0228000Y0480500D02*
X0248000D01*
X0228000Y0470500D02*
Y0480500D01*
Y0470500D02*
X0248000D01*
Y0480500D01*
D18*
X0258472Y0440236D02*
G03*
X0258472Y0440236I-0000492J0000000D01*
G01*
D19*
X0267665Y0440551D02*
G03*
X0267665Y0440551I-0001181J0000000D01*
G01*
D20*
X0346399Y0327500D02*
G03*
X0346399Y0327500I-0009900J0000000D01*
G01*
X0357500Y0481354D02*
X0385846D01*
Y0416000D02*
Y0481354D01*
X0357500Y0416000D02*
Y0481354D01*
Y0416000D02*
X0385846D01*
X0358000Y0401854D02*
X0386346D01*
Y0336500D02*
Y0401854D01*
X0358000Y0336500D02*
Y0401854D01*
Y0336500D02*
X0386346D01*
X0278349Y0327348D02*
X0277349Y0328348D01*
X0275350D01*
X0274350Y0327348D01*
Y0323350D01*
X0275350Y0322350D01*
X0277349D01*
X0278349Y0323350D01*
X0280348Y0322350D02*
X0282347D01*
X0281348D01*
Y0328348D01*
X0280348Y0327348D01*
X0214699Y0481198D02*
X0213699Y0482198D01*
X0211700D01*
X0210700Y0481198D01*
Y0477200D01*
X0211700Y0476200D01*
X0213699D01*
X0214699Y0477200D01*
X0220697Y0476200D02*
X0216698D01*
X0220697Y0480199D01*
Y0481198D01*
X0219697Y0482198D01*
X0217698D01*
X0216698Y0481198D01*
X0331099Y0351598D02*
X0330099Y0352598D01*
X0328100D01*
X0327100Y0351598D01*
Y0347600D01*
X0328100Y0346600D01*
X0330099D01*
X0331099Y0347600D01*
X0333098Y0351598D02*
X0334098Y0352598D01*
X0336097D01*
X0337097Y0351598D01*
Y0350599D01*
X0336097Y0349599D01*
X0335097D01*
X0336097D01*
X0337097Y0348599D01*
Y0347600D01*
X0336097Y0346600D01*
X0334098D01*
X0333098Y0347600D01*
X0211099Y0443398D02*
X0209100D01*
X0208100Y0442398D01*
Y0438400D01*
X0209100Y0437400D01*
X0211099D01*
X0212099Y0438400D01*
Y0442398D01*
X0211099Y0443398D01*
X0214098Y0441399D02*
Y0438400D01*
X0215098Y0437400D01*
X0218097D01*
Y0441399D01*
X0221096Y0442398D02*
Y0441399D01*
X0220096D01*
X0222095D01*
X0221096D01*
Y0438400D01*
X0222095Y0437400D01*
X0225095Y0435401D02*
Y0441399D01*
X0228094D01*
X0229093Y0440399D01*
Y0438400D01*
X0228094Y0437400D01*
X0225095D01*
X0231093Y0441399D02*
Y0438400D01*
X0232092Y0437400D01*
X0235091D01*
Y0441399D01*
X0238090Y0442398D02*
Y0441399D01*
X0237091D01*
X0239090D01*
X0238090D01*
Y0438400D01*
X0239090Y0437400D01*
X0228600Y0483900D02*
Y0489898D01*
X0231599D01*
X0232599Y0488898D01*
Y0486899D01*
X0231599Y0485899D01*
X0228600D01*
X0235598Y0483900D02*
X0237597D01*
X0238597Y0484900D01*
Y0486899D01*
X0237597Y0487899D01*
X0235598D01*
X0234598Y0486899D01*
Y0484900D01*
X0235598Y0483900D01*
X0240596Y0487899D02*
Y0484900D01*
X0241596Y0483900D01*
X0242596Y0484900D01*
X0243595Y0483900D01*
X0244595Y0484900D01*
Y0487899D01*
X0249593Y0483900D02*
X0247594D01*
X0246594Y0484900D01*
Y0486899D01*
X0247594Y0487899D01*
X0249593D01*
X0250593Y0486899D01*
Y0485899D01*
X0246594D01*
X0252592Y0487899D02*
Y0483900D01*
Y0485899D01*
X0253592Y0486899D01*
X0254592Y0487899D01*
X0255591D01*
X0314600Y0406200D02*
Y0412198D01*
X0317599D01*
X0318599Y0411198D01*
Y0409199D01*
X0317599Y0408199D01*
X0314600D01*
X0316599D02*
X0318599Y0406200D01*
X0320598D02*
X0322597D01*
X0321598D01*
Y0412198D01*
X0320598Y0411198D01*
X0225150Y0355150D02*
Y0361148D01*
X0228149D01*
X0229149Y0360148D01*
Y0358149D01*
X0228149Y0357149D01*
X0225150D01*
X0227149D02*
X0229149Y0355150D01*
X0235147D02*
X0231148D01*
X0235147Y0359149D01*
Y0360148D01*
X0234147Y0361148D01*
X0232148D01*
X0231148Y0360148D01*
X0245150Y0353650D02*
Y0359648D01*
X0248149D01*
X0249149Y0358648D01*
Y0356649D01*
X0248149Y0355649D01*
X0245150D01*
X0247149D02*
X0249149Y0353650D01*
X0251148Y0358648D02*
X0252148Y0359648D01*
X0254147D01*
X0255147Y0358648D01*
Y0357649D01*
X0254147Y0356649D01*
X0253147D01*
X0254147D01*
X0255147Y0355649D01*
Y0354650D01*
X0254147Y0353650D01*
X0252148D01*
X0251148Y0354650D01*
X0255650Y0453848D02*
Y0448850D01*
X0256650Y0447850D01*
X0258649D01*
X0259649Y0448850D01*
Y0453848D01*
X0265647Y0447850D02*
X0261648D01*
X0265647Y0451849D01*
Y0452848D01*
X0264647Y0453848D01*
X0262648D01*
X0261648Y0452848D01*
X0358000Y0490998D02*
Y0486999D01*
X0359999Y0485000D01*
X0361999Y0486999D01*
Y0490998D01*
X0363998Y0485000D02*
Y0490998D01*
X0366997D01*
X0367997Y0489998D01*
Y0487999D01*
X0366997Y0486999D01*
X0363998D01*
X0365997D02*
X0367997Y0485000D01*
X0369996D02*
X0371995D01*
X0370996D01*
Y0490998D01*
X0369996Y0489998D01*
X0358500Y0411498D02*
Y0407499D01*
X0360499Y0405500D01*
X0362499Y0407499D01*
Y0411498D01*
X0364498Y0405500D02*
Y0411498D01*
X0367497D01*
X0368497Y0410498D01*
Y0408499D01*
X0367497Y0407499D01*
X0364498D01*
X0366497D02*
X0368497Y0405500D01*
X0374495D02*
X0370496D01*
X0374495Y0409499D01*
Y0410498D01*
X0373495Y0411498D01*
X0371496D01*
X0370496Y0410498D01*
D21*
X0336452Y0343000D02*
Y0339064D01*
X0338420Y0341032D02*
X0334484D01*
M02*
